<?xml version="1.0" encoding="UTF-8"?>
<svg xmlns="http://www.w3.org/2000/svg" xmlns:xlink="http://www.w3.org/1999/xlink" width="20px" height="20px" viewBox="0 0 20 20" version="1.1">
  <g id="surface1">
    <path style=" stroke:none;fill-rule:nonzero;fill:rgb(20.392157%,65.882353%,32.54902%);fill-opacity:1;" d="M 20 10 C 20 15.523438 15.523438 20 10 20 C 4.476562 20 0 15.523438 0 10 C 0 4.476562 4.476562 0 10 0 C 15.523438 0 20 4.476562 20 10 Z M 20 10 "></path>
    <path style=" stroke:none;fill-rule:nonzero;fill:rgb(100%,100%,100%);fill-opacity:1;" d="M 8.535156 11.949219 L 12.167969 8.304688 C 12.746094 7.722656 13.324219 7.136719 13.90625 6.566406 C 14.039062 6.390625 14.242188 6.28125 14.464844 6.265625 C 14.683594 6.25 14.898438 6.324219 15.058594 6.476562 C 15.382812 6.8125 15.347656 7.222656 14.945312 7.628906 L 9.15625 13.417969 C 9.011719 13.625 8.773438 13.75 8.523438 13.75 C 8.269531 13.75 8.03125 13.625 7.886719 13.417969 C 6.941406 12.488281 6.023438 11.546875 5.074219 10.617188 C 4.648438 10.191406 4.601562 9.785156 4.941406 9.433594 C 5.277344 9.082031 5.71875 9.140625 6.148438 9.574219 Z M 8.535156 11.949219 "></path>
  </g>
</svg>
